<mxfile host="Electron" agent="Mozilla/5.0 (Windows NT 10.0; Win64; x64) AppleWebKit/537.36 (KHTML, like Gecko) draw.io/27.0.2 Chrome/134.0.6998.205 Electron/35.3.0 Safari/537.36" version="27.0.2">
  <diagram name="Page-1" id="krywr5BufC7rE-tNmQmr">
    <mxGraphModel dx="1307" dy="679" grid="1" gridSize="10" guides="1" tooltips="1" connect="1" arrows="1" fold="1" page="1" pageScale="1" pageWidth="1920" pageHeight="1200" math="0" shadow="0">
      <root>
        <mxCell id="0" />
        <mxCell id="1" parent="0" />
        <mxCell id="B9BRPgULfXVZw9GZvpOc-9" value="" style="group" vertex="1" connectable="0" parent="1">
          <mxGeometry x="190" y="10" width="600" height="690" as="geometry" />
        </mxCell>
        <mxCell id="Tvr5wFrdSiMJqCR9u-VL-7" value="Student&#39;s School Library Use Case Diagram" style="swimlane;whiteSpace=wrap;html=1;startSize=30;" parent="B9BRPgULfXVZw9GZvpOc-9" vertex="1">
          <mxGeometry x="100" width="400" height="690" as="geometry" />
        </mxCell>
        <mxCell id="Tvr5wFrdSiMJqCR9u-VL-8" value="Register" style="ellipse;whiteSpace=wrap;html=1;" parent="Tvr5wFrdSiMJqCR9u-VL-7" vertex="1">
          <mxGeometry x="140" y="30" width="120" height="30" as="geometry" />
        </mxCell>
        <mxCell id="Tvr5wFrdSiMJqCR9u-VL-10" value="Borrow Book" style="ellipse;whiteSpace=wrap;html=1;" parent="Tvr5wFrdSiMJqCR9u-VL-7" vertex="1">
          <mxGeometry x="140" y="90" width="120" height="30" as="geometry" />
        </mxCell>
        <mxCell id="Tvr5wFrdSiMJqCR9u-VL-9" value="Login" style="ellipse;whiteSpace=wrap;html=1;" parent="Tvr5wFrdSiMJqCR9u-VL-7" vertex="1">
          <mxGeometry x="140" y="60" width="120" height="30" as="geometry" />
        </mxCell>
        <mxCell id="Tvr5wFrdSiMJqCR9u-VL-14" value="Reserve Book" style="ellipse;whiteSpace=wrap;html=1;" parent="Tvr5wFrdSiMJqCR9u-VL-7" vertex="1">
          <mxGeometry x="140" y="150" width="120" height="30" as="geometry" />
        </mxCell>
        <mxCell id="Tvr5wFrdSiMJqCR9u-VL-16" value="Return Book" style="ellipse;whiteSpace=wrap;html=1;" parent="Tvr5wFrdSiMJqCR9u-VL-7" vertex="1">
          <mxGeometry x="140" y="180" width="120" height="30" as="geometry" />
        </mxCell>
        <mxCell id="Tvr5wFrdSiMJqCR9u-VL-17" value="Return Book" style="ellipse;whiteSpace=wrap;html=1;" parent="Tvr5wFrdSiMJqCR9u-VL-7" vertex="1">
          <mxGeometry x="140" y="210" width="120" height="30" as="geometry" />
        </mxCell>
        <mxCell id="Tvr5wFrdSiMJqCR9u-VL-32" value="View Borrow History" style="ellipse;whiteSpace=wrap;html=1;" parent="Tvr5wFrdSiMJqCR9u-VL-7" vertex="1">
          <mxGeometry x="140" y="240" width="120" height="30" as="geometry" />
        </mxCell>
        <mxCell id="Tvr5wFrdSiMJqCR9u-VL-33" value="Cancel Reservation" style="ellipse;whiteSpace=wrap;html=1;" parent="Tvr5wFrdSiMJqCR9u-VL-7" vertex="1">
          <mxGeometry x="140" y="270" width="120" height="30" as="geometry" />
        </mxCell>
        <mxCell id="Tvr5wFrdSiMJqCR9u-VL-34" value="Add New Book" style="ellipse;whiteSpace=wrap;html=1;" parent="Tvr5wFrdSiMJqCR9u-VL-7" vertex="1">
          <mxGeometry x="140" y="330" width="120" height="30" as="geometry" />
        </mxCell>
        <mxCell id="Tvr5wFrdSiMJqCR9u-VL-35" value="View Borrowed Book" style="ellipse;whiteSpace=wrap;html=1;" parent="Tvr5wFrdSiMJqCR9u-VL-7" vertex="1">
          <mxGeometry x="140" y="360" width="120" height="30" as="geometry" />
        </mxCell>
        <mxCell id="Tvr5wFrdSiMJqCR9u-VL-36" value="Remove Book" style="ellipse;whiteSpace=wrap;html=1;" parent="Tvr5wFrdSiMJqCR9u-VL-7" vertex="1">
          <mxGeometry x="140" y="390" width="120" height="30" as="geometry" />
        </mxCell>
        <mxCell id="Tvr5wFrdSiMJqCR9u-VL-37" value="Add Librarian&lt;span style=&quot;color: rgba(0, 0, 0, 0); font-family: monospace; font-size: 0px; text-align: start; text-wrap: nowrap;&quot;&gt;%3CmxGraphModel%3E%3Croot%3E%3CmxCell%20id%3D%220%22%2F%3E%3CmxCell%20id%3D%221%22%20parent%3D%220%22%2F%3E%3CmxCell%20id%3D%222%22%20value%3D%22Return%20Book%22%20style%3D%22ellipse%3BwhiteSpace%3Dwrap%3Bhtml%3D1%3B%22%20vertex%3D%221%22%20parent%3D%221%22%3E%3CmxGeometry%20x%3D%22240%22%20y%3D%22350%22%20width%3D%22120%22%20height%3D%2230%22%20as%3D%22geometry%22%2F%3E%3C%2FmxCell%3E%3C%2Froot%3E%3C%2FmxGraphModel%3E&lt;/span&gt;&lt;span style=&quot;color: rgba(0, 0, 0, 0); font-family: monospace; font-size: 0px; text-align: start; text-wrap: nowrap;&quot;&gt;%3CmxGraphModel%3E%3Croot%3E%3CmxCell%20id%3D%220%22%2F%3E%3CmxCell%20id%3D%221%22%20parent%3D%220%22%2F%3E%3CmxCell%20id%3D%222%22%20value%3D%22Return%20Book%22%20style%3D%22ellipse%3BwhiteSpace%3Dwrap%3Bhtml%3D1%3B%22%20vertex%3D%221%22%20parent%3D%221%22%3E%3CmxGeometry%20x%3D%22240%22%20y%3D%22350%22%20width%3D%22120%22%20height%3D%2230%22%20as%3D%22geometry%22%2F%3E%3C%2FmxCell%3E%3C%2Froot%3E%3C%2FmxGraphModel%3E&lt;/span&gt;" style="ellipse;whiteSpace=wrap;html=1;" parent="Tvr5wFrdSiMJqCR9u-VL-7" vertex="1">
          <mxGeometry x="140" y="420" width="120" height="30" as="geometry" />
        </mxCell>
        <mxCell id="Tvr5wFrdSiMJqCR9u-VL-38" value="Remove Librarian" style="ellipse;whiteSpace=wrap;html=1;" parent="Tvr5wFrdSiMJqCR9u-VL-7" vertex="1">
          <mxGeometry x="140" y="450" width="120" height="30" as="geometry" />
        </mxCell>
        <mxCell id="Tvr5wFrdSiMJqCR9u-VL-39" value="View System Logs" style="ellipse;whiteSpace=wrap;html=1;" parent="Tvr5wFrdSiMJqCR9u-VL-7" vertex="1">
          <mxGeometry x="140" y="575" width="120" height="30" as="geometry" />
        </mxCell>
        <mxCell id="Tvr5wFrdSiMJqCR9u-VL-55" value="View Books" style="ellipse;whiteSpace=wrap;html=1;" parent="Tvr5wFrdSiMJqCR9u-VL-7" vertex="1">
          <mxGeometry x="140" y="120" width="120" height="30" as="geometry" />
        </mxCell>
        <mxCell id="B9BRPgULfXVZw9GZvpOc-1" value="View Librairian" style="ellipse;whiteSpace=wrap;html=1;" vertex="1" parent="Tvr5wFrdSiMJqCR9u-VL-7">
          <mxGeometry x="140" y="545" width="120" height="30" as="geometry" />
        </mxCell>
        <mxCell id="B9BRPgULfXVZw9GZvpOc-2" value="Edit Profile" style="ellipse;whiteSpace=wrap;html=1;" vertex="1" parent="Tvr5wFrdSiMJqCR9u-VL-7">
          <mxGeometry x="140" y="515" width="120" height="30" as="geometry" />
        </mxCell>
        <mxCell id="B9BRPgULfXVZw9GZvpOc-3" value="Edit Libranian" style="ellipse;whiteSpace=wrap;html=1;" vertex="1" parent="Tvr5wFrdSiMJqCR9u-VL-7">
          <mxGeometry x="140" y="485" width="120" height="30" as="geometry" />
        </mxCell>
        <mxCell id="B9BRPgULfXVZw9GZvpOc-7" value="Edit Book" style="ellipse;whiteSpace=wrap;html=1;" vertex="1" parent="Tvr5wFrdSiMJqCR9u-VL-7">
          <mxGeometry x="140" y="300" width="120" height="30" as="geometry" />
        </mxCell>
        <mxCell id="Tvr5wFrdSiMJqCR9u-VL-40" value="Librarian" style="shape=umlActor;verticalLabelPosition=bottom;verticalAlign=top;html=1;outlineConnect=0;" parent="B9BRPgULfXVZw9GZvpOc-9" vertex="1">
          <mxGeometry x="570" y="260" width="30" height="60" as="geometry" />
        </mxCell>
        <mxCell id="Tvr5wFrdSiMJqCR9u-VL-41" value="Student" style="shape=umlActor;verticalLabelPosition=bottom;verticalAlign=top;html=1;outlineConnect=0;" parent="B9BRPgULfXVZw9GZvpOc-9" vertex="1">
          <mxGeometry y="250" width="30" height="60" as="geometry" />
        </mxCell>
        <mxCell id="Tvr5wFrdSiMJqCR9u-VL-43" value="Admin" style="shape=umlActor;verticalLabelPosition=bottom;verticalAlign=top;html=1;outlineConnect=0;" parent="B9BRPgULfXVZw9GZvpOc-9" vertex="1">
          <mxGeometry x="570" y="530" width="30" height="60" as="geometry" />
        </mxCell>
        <mxCell id="Tvr5wFrdSiMJqCR9u-VL-45" value="" style="endArrow=classic;html=1;rounded=0;entryX=0;entryY=0.5;entryDx=0;entryDy=0;exitX=0.5;exitY=0.5;exitDx=0;exitDy=0;exitPerimeter=0;" parent="B9BRPgULfXVZw9GZvpOc-9" source="Tvr5wFrdSiMJqCR9u-VL-41" target="Tvr5wFrdSiMJqCR9u-VL-8" edge="1">
          <mxGeometry width="50" height="50" relative="1" as="geometry">
            <mxPoint x="360" y="440" as="sourcePoint" />
            <mxPoint x="410" y="390" as="targetPoint" />
          </mxGeometry>
        </mxCell>
        <mxCell id="Tvr5wFrdSiMJqCR9u-VL-46" value="" style="endArrow=classic;html=1;rounded=0;entryX=0;entryY=0.5;entryDx=0;entryDy=0;exitX=0.5;exitY=0.5;exitDx=0;exitDy=0;exitPerimeter=0;" parent="B9BRPgULfXVZw9GZvpOc-9" source="Tvr5wFrdSiMJqCR9u-VL-41" target="Tvr5wFrdSiMJqCR9u-VL-10" edge="1">
          <mxGeometry width="50" height="50" relative="1" as="geometry">
            <mxPoint x="-25" y="290" as="sourcePoint" />
            <mxPoint x="260" y="225" as="targetPoint" />
          </mxGeometry>
        </mxCell>
        <mxCell id="Tvr5wFrdSiMJqCR9u-VL-47" value="" style="endArrow=classic;html=1;rounded=0;entryX=0;entryY=0.5;entryDx=0;entryDy=0;exitX=0.5;exitY=0.5;exitDx=0;exitDy=0;exitPerimeter=0;" parent="B9BRPgULfXVZw9GZvpOc-9" source="Tvr5wFrdSiMJqCR9u-VL-41" target="Tvr5wFrdSiMJqCR9u-VL-9" edge="1">
          <mxGeometry width="50" height="50" relative="1" as="geometry">
            <mxPoint x="-30" y="280" as="sourcePoint" />
            <mxPoint x="270" y="235" as="targetPoint" />
          </mxGeometry>
        </mxCell>
        <mxCell id="Tvr5wFrdSiMJqCR9u-VL-48" value="" style="endArrow=classic;html=1;rounded=0;entryX=0;entryY=0.5;entryDx=0;entryDy=0;exitX=0.5;exitY=0.5;exitDx=0;exitDy=0;exitPerimeter=0;" parent="B9BRPgULfXVZw9GZvpOc-9" source="Tvr5wFrdSiMJqCR9u-VL-41" target="Tvr5wFrdSiMJqCR9u-VL-14" edge="1">
          <mxGeometry width="50" height="50" relative="1" as="geometry">
            <mxPoint x="-5" y="310" as="sourcePoint" />
            <mxPoint x="280" y="245" as="targetPoint" />
          </mxGeometry>
        </mxCell>
        <mxCell id="Tvr5wFrdSiMJqCR9u-VL-49" value="" style="endArrow=classic;html=1;rounded=0;entryX=0;entryY=0.5;entryDx=0;entryDy=0;exitX=0.5;exitY=0.5;exitDx=0;exitDy=0;exitPerimeter=0;" parent="B9BRPgULfXVZw9GZvpOc-9" source="Tvr5wFrdSiMJqCR9u-VL-41" target="Tvr5wFrdSiMJqCR9u-VL-16" edge="1">
          <mxGeometry width="50" height="50" relative="1" as="geometry">
            <mxPoint x="5" y="320" as="sourcePoint" />
            <mxPoint x="290" y="255" as="targetPoint" />
          </mxGeometry>
        </mxCell>
        <mxCell id="Tvr5wFrdSiMJqCR9u-VL-50" value="" style="endArrow=classic;html=1;rounded=0;entryX=0;entryY=0.5;entryDx=0;entryDy=0;exitX=0.5;exitY=0.5;exitDx=0;exitDy=0;exitPerimeter=0;" parent="B9BRPgULfXVZw9GZvpOc-9" source="Tvr5wFrdSiMJqCR9u-VL-41" target="Tvr5wFrdSiMJqCR9u-VL-17" edge="1">
          <mxGeometry width="50" height="50" relative="1" as="geometry">
            <mxPoint x="15" y="330" as="sourcePoint" />
            <mxPoint x="300" y="265" as="targetPoint" />
          </mxGeometry>
        </mxCell>
        <mxCell id="Tvr5wFrdSiMJqCR9u-VL-51" value="" style="endArrow=classic;html=1;rounded=0;entryX=0;entryY=0.5;entryDx=0;entryDy=0;exitX=0.5;exitY=0.5;exitDx=0;exitDy=0;exitPerimeter=0;" parent="B9BRPgULfXVZw9GZvpOc-9" source="Tvr5wFrdSiMJqCR9u-VL-41" target="Tvr5wFrdSiMJqCR9u-VL-32" edge="1">
          <mxGeometry width="50" height="50" relative="1" as="geometry">
            <mxPoint x="25" y="340" as="sourcePoint" />
            <mxPoint x="310" y="275" as="targetPoint" />
          </mxGeometry>
        </mxCell>
        <mxCell id="Tvr5wFrdSiMJqCR9u-VL-52" value="" style="endArrow=classic;html=1;rounded=0;entryX=0;entryY=0.5;entryDx=0;entryDy=0;exitX=0.5;exitY=0.5;exitDx=0;exitDy=0;exitPerimeter=0;" parent="B9BRPgULfXVZw9GZvpOc-9" source="Tvr5wFrdSiMJqCR9u-VL-41" target="Tvr5wFrdSiMJqCR9u-VL-33" edge="1">
          <mxGeometry width="50" height="50" relative="1" as="geometry">
            <mxPoint x="-25" y="290" as="sourcePoint" />
            <mxPoint x="260" y="405" as="targetPoint" />
          </mxGeometry>
        </mxCell>
        <mxCell id="Tvr5wFrdSiMJqCR9u-VL-53" value="" style="endArrow=classic;html=1;rounded=0;exitX=0.5;exitY=0.5;exitDx=0;exitDy=0;exitPerimeter=0;entryX=1;entryY=0.5;entryDx=0;entryDy=0;" parent="B9BRPgULfXVZw9GZvpOc-9" source="Tvr5wFrdSiMJqCR9u-VL-40" target="Tvr5wFrdSiMJqCR9u-VL-9" edge="1">
          <mxGeometry width="50" height="50" relative="1" as="geometry">
            <mxPoint x="610" y="400" as="sourcePoint" />
            <mxPoint x="370" y="245" as="targetPoint" />
          </mxGeometry>
        </mxCell>
        <mxCell id="Tvr5wFrdSiMJqCR9u-VL-54" value="" style="endArrow=classic;html=1;rounded=0;exitX=0.5;exitY=0.5;exitDx=0;exitDy=0;exitPerimeter=0;entryX=1;entryY=0.5;entryDx=0;entryDy=0;" parent="B9BRPgULfXVZw9GZvpOc-9" source="Tvr5wFrdSiMJqCR9u-VL-40" target="Tvr5wFrdSiMJqCR9u-VL-34" edge="1">
          <mxGeometry width="50" height="50" relative="1" as="geometry">
            <mxPoint x="-5" y="310" as="sourcePoint" />
            <mxPoint x="366" y="462" as="targetPoint" />
          </mxGeometry>
        </mxCell>
        <mxCell id="Tvr5wFrdSiMJqCR9u-VL-56" value="" style="endArrow=classic;html=1;rounded=0;entryX=0;entryY=0.5;entryDx=0;entryDy=0;exitX=0.5;exitY=0.5;exitDx=0;exitDy=0;exitPerimeter=0;" parent="B9BRPgULfXVZw9GZvpOc-9" source="Tvr5wFrdSiMJqCR9u-VL-41" target="Tvr5wFrdSiMJqCR9u-VL-55" edge="1">
          <mxGeometry width="50" height="50" relative="1" as="geometry">
            <mxPoint x="-25" y="290" as="sourcePoint" />
            <mxPoint x="260" y="285" as="targetPoint" />
          </mxGeometry>
        </mxCell>
        <mxCell id="Tvr5wFrdSiMJqCR9u-VL-57" value="" style="endArrow=classic;html=1;rounded=0;exitX=0.5;exitY=0.5;exitDx=0;exitDy=0;exitPerimeter=0;entryX=1;entryY=0.5;entryDx=0;entryDy=0;" parent="B9BRPgULfXVZw9GZvpOc-9" source="Tvr5wFrdSiMJqCR9u-VL-40" target="Tvr5wFrdSiMJqCR9u-VL-55" edge="1">
          <mxGeometry width="50" height="50" relative="1" as="geometry">
            <mxPoint x="645" y="290" as="sourcePoint" />
            <mxPoint x="380" y="285" as="targetPoint" />
          </mxGeometry>
        </mxCell>
        <mxCell id="Tvr5wFrdSiMJqCR9u-VL-58" value="" style="endArrow=classic;html=1;rounded=0;entryX=1;entryY=0.5;entryDx=0;entryDy=0;exitX=0.5;exitY=0.5;exitDx=0;exitDy=0;exitPerimeter=0;" parent="B9BRPgULfXVZw9GZvpOc-9" source="Tvr5wFrdSiMJqCR9u-VL-40" target="Tvr5wFrdSiMJqCR9u-VL-35" edge="1">
          <mxGeometry width="50" height="50" relative="1" as="geometry">
            <mxPoint x="630" y="280" as="sourcePoint" />
            <mxPoint x="380" y="495" as="targetPoint" />
          </mxGeometry>
        </mxCell>
        <mxCell id="Tvr5wFrdSiMJqCR9u-VL-59" value="" style="endArrow=classic;html=1;rounded=0;exitX=0.5;exitY=0.5;exitDx=0;exitDy=0;exitPerimeter=0;entryX=1;entryY=0.5;entryDx=0;entryDy=0;" parent="B9BRPgULfXVZw9GZvpOc-9" source="Tvr5wFrdSiMJqCR9u-VL-40" target="Tvr5wFrdSiMJqCR9u-VL-36" edge="1">
          <mxGeometry width="50" height="50" relative="1" as="geometry">
            <mxPoint x="655" y="300" as="sourcePoint" />
            <mxPoint x="390" y="505" as="targetPoint" />
          </mxGeometry>
        </mxCell>
        <mxCell id="Tvr5wFrdSiMJqCR9u-VL-60" value="" style="endArrow=classic;html=1;rounded=0;entryX=1;entryY=0.5;entryDx=0;entryDy=0;exitX=0.5;exitY=0.5;exitDx=0;exitDy=0;exitPerimeter=0;" parent="B9BRPgULfXVZw9GZvpOc-9" source="Tvr5wFrdSiMJqCR9u-VL-43" target="Tvr5wFrdSiMJqCR9u-VL-37" edge="1">
          <mxGeometry width="50" height="50" relative="1" as="geometry">
            <mxPoint x="360" y="440" as="sourcePoint" />
            <mxPoint x="410" y="390" as="targetPoint" />
          </mxGeometry>
        </mxCell>
        <mxCell id="Tvr5wFrdSiMJqCR9u-VL-61" value="" style="endArrow=classic;html=1;rounded=0;entryX=1;entryY=0.5;entryDx=0;entryDy=0;exitX=0.5;exitY=0.5;exitDx=0;exitDy=0;exitPerimeter=0;" parent="B9BRPgULfXVZw9GZvpOc-9" source="Tvr5wFrdSiMJqCR9u-VL-43" target="Tvr5wFrdSiMJqCR9u-VL-38" edge="1">
          <mxGeometry width="50" height="50" relative="1" as="geometry">
            <mxPoint x="645" y="570" as="sourcePoint" />
            <mxPoint x="380" y="585" as="targetPoint" />
          </mxGeometry>
        </mxCell>
        <mxCell id="Tvr5wFrdSiMJqCR9u-VL-62" value="" style="endArrow=classic;html=1;rounded=0;entryX=1;entryY=0.5;entryDx=0;entryDy=0;exitX=0.5;exitY=0.5;exitDx=0;exitDy=0;exitPerimeter=0;" parent="B9BRPgULfXVZw9GZvpOc-9" source="Tvr5wFrdSiMJqCR9u-VL-43" target="Tvr5wFrdSiMJqCR9u-VL-39" edge="1">
          <mxGeometry width="50" height="50" relative="1" as="geometry">
            <mxPoint x="645" y="570" as="sourcePoint" />
            <mxPoint x="380" y="615" as="targetPoint" />
          </mxGeometry>
        </mxCell>
        <mxCell id="B9BRPgULfXVZw9GZvpOc-4" value="" style="endArrow=classic;html=1;rounded=0;entryX=1;entryY=0.5;entryDx=0;entryDy=0;exitX=0.5;exitY=0.5;exitDx=0;exitDy=0;exitPerimeter=0;" edge="1" parent="B9BRPgULfXVZw9GZvpOc-9" source="Tvr5wFrdSiMJqCR9u-VL-43" target="B9BRPgULfXVZw9GZvpOc-3">
          <mxGeometry width="50" height="50" relative="1" as="geometry">
            <mxPoint x="595" y="570" as="sourcePoint" />
            <mxPoint x="370" y="445" as="targetPoint" />
          </mxGeometry>
        </mxCell>
        <mxCell id="B9BRPgULfXVZw9GZvpOc-5" value="" style="endArrow=classic;html=1;rounded=0;entryX=1;entryY=0.5;entryDx=0;entryDy=0;exitX=0.5;exitY=0.5;exitDx=0;exitDy=0;exitPerimeter=0;" edge="1" parent="B9BRPgULfXVZw9GZvpOc-9" source="Tvr5wFrdSiMJqCR9u-VL-43" target="B9BRPgULfXVZw9GZvpOc-2">
          <mxGeometry width="50" height="50" relative="1" as="geometry">
            <mxPoint x="595" y="570" as="sourcePoint" />
            <mxPoint x="370" y="480" as="targetPoint" />
          </mxGeometry>
        </mxCell>
        <mxCell id="B9BRPgULfXVZw9GZvpOc-6" value="" style="endArrow=classic;html=1;rounded=0;entryX=1;entryY=0.5;entryDx=0;entryDy=0;exitX=0.5;exitY=0.5;exitDx=0;exitDy=0;exitPerimeter=0;" edge="1" parent="B9BRPgULfXVZw9GZvpOc-9" source="Tvr5wFrdSiMJqCR9u-VL-43" target="B9BRPgULfXVZw9GZvpOc-1">
          <mxGeometry width="50" height="50" relative="1" as="geometry">
            <mxPoint x="580" y="560" as="sourcePoint" />
            <mxPoint x="370" y="510" as="targetPoint" />
          </mxGeometry>
        </mxCell>
        <mxCell id="B9BRPgULfXVZw9GZvpOc-8" value="" style="endArrow=classic;html=1;rounded=0;exitX=0.5;exitY=0.5;exitDx=0;exitDy=0;exitPerimeter=0;entryX=1;entryY=0.5;entryDx=0;entryDy=0;" edge="1" parent="B9BRPgULfXVZw9GZvpOc-9" source="Tvr5wFrdSiMJqCR9u-VL-40" target="B9BRPgULfXVZw9GZvpOc-7">
          <mxGeometry width="50" height="50" relative="1" as="geometry">
            <mxPoint x="595" y="300" as="sourcePoint" />
            <mxPoint x="370" y="355" as="targetPoint" />
          </mxGeometry>
        </mxCell>
      </root>
    </mxGraphModel>
  </diagram>
</mxfile>
